<?xml version="1.0" encoding="UTF-8"?>
<svg width="24px" height="24px" viewBox="0 0 24 24" version="1.1" xmlns="http://www.w3.org/2000/svg" xmlns:xlink="http://www.w3.org/1999/xlink">
    <!-- Generator: Sketch 55.2 (78181) - https://sketchapp.com -->
    <title>2 - Icons/Language/USA-24x24</title>
    <desc>Created with Sketch.</desc>
    <defs>
        <circle id="path-1" cx="8" cy="8" r="8"></circle>
    </defs>
    <g id="2---Icons/Language/USA-24x24" stroke="none" stroke-width="1" fill="none" fill-rule="evenodd">
        <g id="flag-eng">
            <g id="elements/language-select/flag-icon">
                <g id="Flag">
                    <circle id="Mask" stroke="#E7E7E7" fill="#FFFFFF" cx="12" cy="12" r="11.5"></circle>
                    <g id="united-states-of-america-flag-square" transform="translate(4.000000, 4.000000)">
                        <mask id="mask-2" fill="white">
                            <use xlink:href="#path-1"></use>
                        </mask>
                        <circle stroke="#E7E7E7" stroke-width="0.2" cx="8" cy="8" r="8.1"></circle>
                        <g mask="url(#mask-2)" fill-rule="nonzero">
                            <g transform="translate(-10.000000, -4.000000)">
                                <rect id="_x35_9" fill="#FFFFFF" x="0" y="0" width="45.6" height="24"></rect>
                                <rect id="_x35_8" fill="#B22234" x="0" y="0" width="45.6" height="1.8464"></rect>
                                <rect id="_x35_7" fill="#B22234" x="0" y="3.692" width="45.6" height="1.8464"></rect>
                                <rect id="_x35_6" fill="#B22234" x="0" y="7.3848" width="45.6" height="1.8464"></rect>
                                <rect id="_x35_5" fill="#B22234" x="0" y="11.0768" width="45.6" height="1.8464"></rect>
                                <rect id="_x35_4" fill="#B22234" x="0" y="14.7696" width="45.6" height="1.8464"></rect>
                                <rect id="_x35_3" fill="#B22234" x="0" y="18.4616" width="45.6" height="1.8464"></rect>
                                <rect id="_x35_2" fill="#B22234" x="0" y="22.1536" width="45.6" height="1.8464"></rect>
                                <rect id="_x35_1" fill="#3C3B6E" x="0" y="0" width="18.24" height="12.9232"></rect>
                                <polygon id="_x34_8" fill="#FFFFFF" points="6.9048 1.0488 7.3392 1.3648 7.1736 1.8752 7.608 1.56 8.0424 1.8752 7.8768 1.3648 8.3112 1.0488 7.7736 1.0488 7.608 0.5384 7.4424 1.0488"></polygon>
                                <polygon id="_x34_7" fill="#FFFFFF" points="9.9288 1.0488 10.3632 1.3648 10.1976 1.8752 10.632 1.56 11.0664 1.8752 10.9008 1.3648 11.3352 1.0488 10.7976 1.0488 10.632 0.5384 10.4664 1.0488"></polygon>
                                <polygon id="_x34_6" fill="#FFFFFF" points="12.9528 1.0488 13.3872 1.3648 13.2216 1.8752 13.656 1.56 14.0904 1.8752 13.9248 1.3648 14.3592 1.0488 13.8216 1.0488 13.656 0.5384 13.4896 1.0488"></polygon>
                                <polygon id="_x34_5" fill="#FFFFFF" points="15.9768 1.0488 16.4112 1.3648 16.2456 1.8752 16.68 1.56 17.1144 1.8752 16.9488 1.3648 17.3832 1.0488 16.8456 1.0488 16.68 0.5384 16.5136 1.0488"></polygon>
                                <polygon id="_x34_3" fill="#FFFFFF" points="5.3928 2.3448 5.8272 2.6608 5.6616 3.172 6.096 2.856 6.5304 3.172 6.3648 2.6608 6.7992 2.3448 6.2616 2.3448 6.096 1.8344 5.9296 2.3448"></polygon>
                                <polygon id="_x34_2" fill="#FFFFFF" points="8.4168 2.3448 8.8512 2.6608 8.6856 3.172 9.12 2.856 9.5544 3.172 9.3888 2.6608 9.8232 2.3448 9.2856 2.3448 9.12 1.8344 8.9544 2.3448"></polygon>
                                <polygon id="_x34_1" fill="#FFFFFF" points="11.4408 2.3448 11.8752 2.6608 11.7096 3.172 12.144 2.856 12.5784 3.172 12.4128 2.6608 12.8472 2.3448 12.3096 2.3448 12.144 1.8344 11.9776 2.3448"></polygon>
                                <polygon id="_x34_0" fill="#FFFFFF" points="14.4648 2.3448 14.8992 2.6608 14.7336 3.172 15.168 2.856 15.6024 3.172 15.4368 2.6608 15.8712 2.3448 15.3336 2.3448 15.168 1.8344 15.0016 2.3448"></polygon>
                                <polygon id="_x33_7_1_" fill="#FFFFFF" points="6.9048 3.6408 7.3392 3.9568 7.1736 4.468 7.608 4.152 8.0424 4.468 7.8768 3.9568 8.3112 3.6408 7.7736 3.6408 7.608 3.1304 7.4424 3.6408"></polygon>
                                <polygon id="_x33_6_1_" fill="#FFFFFF" points="9.9288 3.6408 10.3632 3.9568 10.1976 4.468 10.632 4.152 11.0664 4.468 10.9008 3.9568 11.3352 3.6408 10.7976 3.6408 10.632 3.1304 10.4664 3.6408"></polygon>
                                <polygon id="_x33_5_1_" fill="#FFFFFF" points="12.9528 3.6408 13.3872 3.9568 13.2216 4.468 13.656 4.152 14.0904 4.468 13.9248 3.9568 14.3592 3.6408 13.8216 3.6408 13.656 3.1304 13.4896 3.6408"></polygon>
                                <polygon id="_x33_4_1_" fill="#FFFFFF" points="15.9768 3.6408 16.4112 3.9568 16.2456 4.468 16.68 4.152 17.1144 4.468 16.9488 3.9568 17.3832 3.6408 16.8456 3.6408 16.68 3.1304 16.5136 3.6408"></polygon>
                                <polygon id="_x33_2_1_" fill="#FFFFFF" points="5.4304 4.9416 5.8648 5.2568 5.6984 5.768 6.1336 5.452 6.568 5.768 6.4016 5.2568 6.836 4.9416 6.2992 4.9416 6.1336 4.4304 5.9672 4.9416"></polygon>
                                <polygon id="_x33_1_1_" fill="#FFFFFF" points="8.4544 4.9416 8.8888 5.2568 8.7224 5.768 9.1576 5.452 9.592 5.768 9.4256 5.2568 9.86 4.9416 9.3232 4.9416 9.1576 4.4304 8.9912 4.9416"></polygon>
                                <polygon id="_x33_0_1_" fill="#FFFFFF" points="11.4784 4.9416 11.9128 5.2568 11.7464 5.768 12.1816 5.452 12.616 5.768 12.4496 5.2568 12.884 4.9416 12.3472 4.9416 12.1816 4.4304 12.0152 4.9416"></polygon>
                                <polygon id="_x32_9_1_" fill="#FFFFFF" points="14.5024 4.9416 14.9368 5.2568 14.7704 5.768 15.2056 5.452 15.64 5.768 15.4736 5.2568 15.908 4.9416 15.3712 4.9416 15.2056 4.4304 15.0392 4.9416"></polygon>
                                <polygon id="_x32_6_1_" fill="#FFFFFF" points="6.9512 6.2264 7.3856 6.5424 7.2192 7.0528 7.6536 6.7376 8.088 7.0528 7.9224 6.5424 8.3568 6.2264 7.82 6.2264 7.6536 5.716 7.488 6.2264"></polygon>
                                <polygon id="_x32_5_1_" fill="#FFFFFF" points="9.9752 6.2264 10.4096 6.5424 10.2432 7.0528 10.6776 6.7376 11.112 7.0528 10.9464 6.5424 11.3808 6.2264 10.844 6.2264 10.6776 5.716 10.512 6.2264"></polygon>
                                <polygon id="_x32_4_1_" fill="#FFFFFF" points="12.9992 6.2264 13.4336 6.5424 13.2672 7.0528 13.7016 6.7376 14.136 7.0528 13.9704 6.5424 14.4048 6.2264 13.868 6.2264 13.7016 5.716 13.536 6.2264"></polygon>
                                <polygon id="_x32_3_1_" fill="#FFFFFF" points="16.0232 6.2264 16.4576 6.5424 16.2912 7.0528 16.7256 6.7376 17.16 7.0528 16.9944 6.5424 17.4288 6.2264 16.892 6.2264 16.7256 5.716 16.56 6.2264"></polygon>
                                <polygon id="_x32_0_1_" fill="#FFFFFF" points="6.9792 8.7776 7.4136 9.0936 7.248 9.604 7.6824 9.288 8.1168 9.604 7.9504 9.0936 8.3856 8.7776 7.848 8.7776 7.6824 8.2664 7.516 8.7776"></polygon>
                                <polygon id="_x31_9_1_" fill="#FFFFFF" points="10.0032 8.7776 10.4376 9.0936 10.272 9.604 10.7064 9.288 11.1408 9.604 10.9744 9.0936 11.4096 8.7776 10.872 8.7776 10.7064 8.2664 10.54 8.7776"></polygon>
                                <polygon id="_x31_8_1_" fill="#FFFFFF" points="13.0272 8.7776 13.4616 9.0936 13.296 9.604 13.7304 9.288 14.1648 9.604 13.9984 9.0936 14.4336 8.7776 13.896 8.7776 13.7304 8.2664 13.564 8.7776"></polygon>
                                <polygon id="_x31_7_1_" fill="#FFFFFF" points="16.0512 8.7776 16.4856 9.0936 16.32 9.604 16.7544 9.288 17.1888 9.604 17.0224 9.0936 17.4568 8.7776 16.92 8.7776 16.7544 8.2664 16.588 8.7776"></polygon>
                                <polygon id="_x31_4_1_" fill="#FFFFFF" points="6.9424 11.3584 7.3768 11.6744 7.2104 12.1848 7.6456 11.8696 8.08 12.1848 7.9136 11.6744 8.348 11.3584 7.8112 11.3584 7.6456 10.848 7.4792 11.3584"></polygon>
                                <polygon id="_x31_3_1_" fill="#FFFFFF" points="9.9664 11.3584 10.4008 11.6744 10.2344 12.1848 10.6696 11.8696 11.104 12.1848 10.9376 11.6744 11.372 11.3584 10.8352 11.3584 10.6696 10.848 10.5032 11.3584"></polygon>
                                <polygon id="_x31_2_1_" fill="#FFFFFF" points="12.9904 11.3584 13.4248 11.6744 13.2584 12.1848 13.6936 11.8696 14.128 12.1848 13.9616 11.6744 14.396 11.3584 13.8592 11.3584 13.6936 10.848 13.5272 11.3584"></polygon>
                                <polygon id="_x31_1_1_" fill="#FFFFFF" points="16.0144 11.3584 16.4488 11.6744 16.2824 12.1848 16.7176 11.8696 17.152 12.1848 16.9856 11.6744 17.42 11.3584 16.8832 11.3584 16.7176 10.848 16.5512 11.3584"></polygon>
                                <polygon id="_x39__1_" fill="#FFFFFF" points="5.4392 7.4896 5.8736 7.8048 5.708 8.316 6.1424 8 6.5768 8.316 6.4104 7.8048 6.8456 7.4896 6.308 7.4896 6.1424 6.9784 5.976 7.4896"></polygon>
                                <polygon id="_x38__1_" fill="#FFFFFF" points="8.4632 7.4896 8.8976 7.8048 8.732 8.316 9.1664 8 9.6008 8.316 9.4344 7.8048 9.8696 7.4896 9.332 7.4896 9.1664 6.9784 9 7.4896"></polygon>
                                <polygon id="_x37__1_" fill="#FFFFFF" points="11.4872 7.4896 11.9216 7.8048 11.756 8.316 12.1904 8 12.6248 8.316 12.4584 7.8048 12.8936 7.4896 12.356 7.4896 12.1904 6.9784 12.024 7.4896"></polygon>
                                <polygon id="_x36__1_" fill="#FFFFFF" points="14.5112 7.4896 14.9456 7.8048 14.78 8.316 15.2144 8 15.6488 8.316 15.4824 7.8048 15.9176 7.4896 15.38 7.4896 15.2144 6.9784 15.048 7.4896"></polygon>
                                <polygon id="_x34_" fill="#FFFFFF" points="5.4304 10.0664 5.8648 10.3816 5.6992 10.8928 6.1336 10.5768 6.568 10.8928 6.4016 10.3816 6.836 10.0664 6.2992 10.0664 6.1336 9.5552 5.9672 10.0664"></polygon>
                                <polygon id="_x33_" fill="#FFFFFF" points="8.4544 10.0664 8.8888 10.3816 8.7232 10.8928 9.1576 10.5768 9.592 10.8928 9.4256 10.3816 9.86 10.0664 9.3232 10.0664 9.1576 9.5552 8.9912 10.0664"></polygon>
                                <polygon id="_x32__1_" fill="#FFFFFF" points="11.4784 10.0664 11.9128 10.3816 11.7464 10.8928 12.1816 10.5768 12.616 10.8928 12.4496 10.3816 12.884 10.0664 12.3472 10.0664 12.1816 9.5552 12.0152 10.0664"></polygon>
                                <polygon id="_x31__1_" fill="#FFFFFF" points="14.5024 10.0664 14.9368 10.3816 14.7704 10.8928 15.2056 10.5768 15.64 10.8928 15.4736 10.3816 15.908 10.0664 15.3712 10.0664 15.2056 9.5552 15.0392 10.0664"></polygon>
                            </g>
                        </g>
                    </g>
                </g>
            </g>
        </g>
    </g>
</svg>